<svg xmlns="http://www.w3.org/2000/svg" viewBox="0 0 64 64"><defs><linearGradient id="bg" x1="0" y1="0" x2="1" y2="1"><stop offset="0%" stop-color="#0e1f35"/><stop offset="100%" stop-color="#07111F"/></linearGradient><linearGradient id="g" x1="0" y1="0" x2="0" y2="1"><stop offset="0%" stop-color="#fff8dc"/><stop offset="25%" stop-color="#e8b84b"/><stop offset="75%" stop-color="#c49030"/><stop offset="100%" stop-color="#7a5200"/></linearGradient></defs><rect width="64" height="64" rx="13" fill="url(#bg)"/><rect x="29" y="8" width="6" height="6" rx="2" fill="url(#g)"/><rect x="29" y="50" width="6" height="6" rx="2" fill="url(#g)"/><path d="M32 14 C20 14 14 20 14 27 C14 34 20 37 32 39 C44 41 48 43 48 49 C48 55 42 52 32 52 C22 52 18 49 16 45" stroke="url(#g)" stroke-width="5.5" fill="none" stroke-linecap="round"/><path d="M32 14 C44 14 50 19 50 26" stroke="url(#g)" stroke-width="5.5" fill="none" stroke-linecap="round"/><rect x="30" y="6" width="4" height="52" rx="2" fill="url(#g)" opacity="0.15"/></svg>